<?xml version="1.0" encoding="utf-8"?>
<!-- Generator: Adobe Illustrator 15.1.0, SVG Export Plug-In . SVG Version: 6.00 Build 0)  -->
<!DOCTYPE svg PUBLIC "-//W3C//DTD SVG 1.1//EN" "http://www.w3.org/Graphics/SVG/1.1/DTD/svg11.dtd">
<svg version="1.1" id="Layer_1" xmlns="http://www.w3.org/2000/svg" xmlns:xlink="http://www.w3.org/1999/xlink" x="0px" y="0px"
	 width="53.356px" height="48.338px" viewBox="0 0 53.356 48.338" enable-background="new 0 0 53.356 48.338" xml:space="preserve">
<g>
	<rect x="12.268" y="36.342" fill="#020202" width="1.204" height="3.078"/>
	<rect x="11.33" y="37.28" fill="#020202" width="3.079" height="1.204"/>
</g>
<g>
	<path d="M10.185,35.912H6.299c-0.034,0.236-0.06,0.483-0.079,0.737h3.835C10.086,36.382,10.128,36.133,10.185,35.912z"/>
	<path d="M6.572,34.65h4.273c0.466-0.482,1.113-0.698,1.956-0.698c0.899,0,1.577,0.178,2.018,0.698h4.075
		c-0.056-0.26-0.123-0.507-0.205-0.737H6.844C6.741,34.145,6.651,34.39,6.572,34.65z"/>
	<path d="M10.27,35.662c0.096-0.294,0.215-0.551,0.364-0.762H6.507c-0.065,0.242-0.12,0.496-0.165,0.762H10.27z"/>
	<path d="M10.03,36.899H6.199c-0.014,0.243-0.021,0.496-0.022,0.755h3.818C9.997,37.384,10.01,37.135,10.03,36.899z"/>
	<path d="M7.017,41.896c0.145,0.274,0.307,0.529,0.489,0.762H18.12c0.158-0.229,0.291-0.487,0.411-0.762H7.017z"/>
	<path d="M7.628,32.658h10.391c-0.215-0.28-0.461-0.525-0.738-0.737H8.422C8.128,32.134,7.864,32.38,7.628,32.658z"/>
	<path d="M7.721,42.908c0.271,0.298,0.576,0.557,0.918,0.776h8.441c0.319-0.217,0.599-0.476,0.843-0.776H7.721z"/>
	<path d="M10.072,38.917H6.229c0.022,0.255,0.05,0.501,0.087,0.737h3.904C10.158,39.432,10.108,39.185,10.072,38.917z"/>
	<path d="M16.922,31.67c-1.035-0.636-2.42-0.905-4.122-0.905c-1.644,0-2.979,0.292-4.01,0.905H16.922z"/>
	<path d="M6.968,33.663h11.625c-0.113-0.273-0.245-0.524-0.396-0.755H7.42C7.25,33.138,7.103,33.393,6.968,33.663z"/>
	<path d="M10.306,39.904H6.359c0.048,0.263,0.105,0.515,0.173,0.755h4.162C10.534,40.455,10.411,40.194,10.306,39.904z"/>
	<path d="M15.393,36.455h3.691c-0.001-0.188-0.013-0.365-0.023-0.543h-3.73C15.357,36.083,15.382,36.255,15.393,36.455z"/>
	<path d="M9.079,43.934c0.988,0.504,2.224,0.749,3.722,0.749c1.568,0,2.86-0.221,3.86-0.749H9.079z"/>
	<path d="M14.998,34.9c0.124,0.209,0.22,0.46,0.287,0.762h3.763c-0.022-0.268-0.058-0.52-0.101-0.762H14.998z"/>
	<path d="M14.929,40.659h3.979c0.047-0.239,0.085-0.49,0.113-0.755h-3.788C15.155,40.199,15.06,40.458,14.929,40.659z"/>
	<path d="M18.641,41.646c0.085-0.229,0.154-0.478,0.215-0.737h-4.139c-0.443,0.459-1.085,0.605-1.917,0.605
		c-0.783,0-1.396-0.191-1.854-0.605H6.601c0.083,0.262,0.183,0.505,0.291,0.737H18.641z"/>
	<path d="M15.39,38.917c-0.018,0.272-0.048,0.517-0.09,0.737h3.75c0.019-0.235,0.029-0.481,0.033-0.737H15.39z"/>
	<path d="M6.179,37.904c0.003,0.262,0.01,0.518,0.026,0.763h3.829c-0.022-0.234-0.031-0.494-0.035-0.763H6.179z"/>
</g>
<g>
	<rect x="7.285" y="9.417" width="1.205" height="0.558"/>
	<rect x="7.292" y="7.413" width="1.205" height="0.47"/>
	<rect x="7.294" y="6.754" width="1.205" height="0.459"/>
	<rect x="7.29" y="8.083" width="1.205" height="0.476"/>
	<rect x="7.287" y="8.758" width="1.205" height="0.459"/>
	<rect x="5.582" y="4.903" width="4.644" height="0.316"/>
	<rect x="7.297" y="6.079" width="1.205" height="0.475"/>
	<rect x="5.582" y="5.42" width="4.644" height="0.459"/>
</g>
<g>
	<rect x="43.634" y="18.295" fill="#020202" width="1.203" height="3.078"/>
	<rect x="42.696" y="19.233" fill="#020202" width="3.078" height="1.205"/>
</g>
<g>
	<polygon points="15.669,17.818 15.447,18.58 18.752,18.58 19.027,17.818 	"/>
	<polygon points="13.601,21.584 13.375,20.822 10.221,20.822 10.48,21.584 	"/>
	<polygon points="9.116,17.568 12.41,17.568 12.191,16.831 8.865,16.831 	"/>
	<polygon points="15.087,19.817 14.867,20.572 18.035,20.572 18.307,19.817 	"/>
	<polygon points="13.301,20.572 13.077,19.817 9.88,19.817 10.136,20.572 	"/>
	<polygon points="13.002,19.567 12.784,18.83 9.544,18.83 9.795,19.567 	"/>
	<polygon points="12.71,18.58 12.484,17.818 9.201,17.818 9.459,18.58 	"/>
	<polygon points="15.375,18.83 15.16,19.567 18.397,19.567 18.663,18.83 	"/>
	<polygon points="23.072,15.576 23.073,14.838 16.537,14.838 16.322,15.576 	"/>
	<polygon points="17.315,22.572 17.581,21.834 14.499,21.834 14.284,22.572 	"/>
	<polygon points="19.651,17.568 23.069,17.568 23.07,16.831 19.677,16.831 	"/>
	<polygon points="16.61,14.588 23.074,14.588 23.075,13.807 16.837,13.807 	"/>
	<polygon points="14.794,20.822 14.572,21.584 17.67,21.584 17.945,20.822 	"/>
	<polygon points="19.473,16.581 19.708,15.925 19.686,16.581 23.071,16.581 23.072,15.826 16.25,15.826 16.029,16.581 	"/>
	<polygon points="19.117,17.568 19.382,16.831 15.957,16.831 15.742,17.568 	"/>
	<polygon points="19.572,19.817 19.546,20.572 23.065,20.572 23.066,19.817 	"/>
	<polygon points="19.643,17.818 19.616,18.58 23.068,18.58 23.069,17.818 	"/>
	<polygon points="19.607,18.83 19.581,19.567 23.067,19.567 23.068,18.83 	"/>
	<polygon points="23.075,13.557 23.076,13.098 17.044,13.098 16.91,13.557 	"/>
	<polygon points="19.362,25.826 19.349,26.224 23.058,26.224 23.058,25.826 	"/>
	<polygon points="5.215,25.826 5.215,25.576 8.883,25.576 8.856,24.814 5.215,24.814 5.215,24.564 8.848,24.564 8.822,23.827 
		5.215,23.827 5.215,23.577 8.813,23.577 8.787,22.822 5.215,22.822 5.215,22.572 8.778,22.572 8.752,21.834 5.215,21.834 
		5.215,21.584 8.744,21.584 8.717,20.822 5.215,20.822 5.215,20.572 8.708,20.572 8.682,19.817 5.215,19.817 5.215,19.567 
		8.673,19.567 8.648,18.83 5.215,18.83 5.215,18.58 8.639,18.58 8.612,17.818 5.215,17.818 5.215,17.568 8.604,17.568 8.578,16.831 
		5.215,16.831 5.215,16.581 8.569,16.581 8.545,15.889 8.78,16.581 12.117,16.581 11.893,15.826 5.215,15.826 5.215,15.576 
		11.819,15.576 11.6,14.838 5.215,14.838 5.215,14.588 11.526,14.588 11.294,13.807 5.215,13.807 5.215,13.557 11.22,13.557 
		11.084,13.098 5.214,13.098 5.214,26.224 8.905,26.224 8.892,25.826 	"/>
	<polygon points="13.894,22.572 13.675,21.834 10.565,21.834 10.815,22.572 	"/>
	<polygon points="11.921,25.826 12.056,26.224 16,26.224 16.143,25.826 	"/>
	<polygon points="19.538,20.822 19.511,21.584 23.064,21.584 23.065,20.822 	"/>
	<polygon points="16.598,24.564 16.863,23.827 11.242,23.827 11.492,24.564 	"/>
	<polygon points="16.233,25.576 16.507,24.814 11.577,24.814 11.836,25.576 	"/>
	<polygon points="19.502,21.834 19.476,22.572 23.062,22.572 23.063,21.834 	"/>
	<polygon points="16.953,23.577 17.225,22.822 14.211,22.822 14.091,23.236 13.968,22.822 10.9,22.822 11.157,23.577 	"/>
	<polygon points="19.468,22.822 19.441,23.577 23.062,23.577 23.062,22.822 	"/>
	<polygon points="19.433,23.827 19.407,24.564 23.06,24.564 23.061,23.827 	"/>
	<polygon points="23.06,24.814 19.398,24.814 19.371,25.576 23.059,25.576 	"/>
</g>
<g>
	<rect x="25.626" y="24.832" width="10.605" height="0.762"/>
	<rect x="25.626" y="21.852" width="3.727" height="0.737"/>
	<rect x="25.626" y="19.834" width="9.417" height="0.755"/>
	<rect x="25.626" y="23.844" width="10.605" height="0.737"/>
	<rect x="25.626" y="18.847" width="9.417" height="0.737"/>
	<polygon points="25.626,20.839 25.626,21.602 29.354,21.602 29.354,20.949 35.043,20.949 35.043,20.839 	"/>
	<polygon points="25.626,22.839 25.626,23.594 36.231,23.594 36.231,23.236 29.354,23.236 29.354,22.839 	"/>
	<rect x="25.626" y="13.825" width="10.46" height="0.781"/>
	<rect x="25.626" y="13.098" width="10.46" height="0.477"/>
	<polygon points="29.354,18.23 29.354,17.835 25.626,17.835 25.626,18.597 35.043,18.597 35.043,18.23 	"/>
	<rect x="25.626" y="25.843" width="10.605" height="0.381"/>
	<rect x="25.626" y="16.848" width="3.727" height="0.737"/>
	<polygon points="29.354,16.598 29.354,16.105 36.087,16.105 36.087,15.843 25.626,15.843 25.626,16.598 	"/>
	<rect x="25.626" y="14.856" width="10.46" height="0.737"/>
</g>
<g>
	<path d="M41.827,16.581v-0.313h1.908c0.802,0,1.421,0.095,1.904,0.313h4.82c-0.08-0.267-0.176-0.519-0.291-0.755H38.011v0.755
		H41.827z"/>
	<rect x="38.011" y="17.818" width="3.816" height="0.762"/>
	<path d="M50.038,15.576c-0.153-0.268-0.336-0.513-0.549-0.737H38.011v0.737H50.038z"/>
	<rect x="38.011" y="18.83" width="3.816" height="0.737"/>
	<rect x="38.011" y="16.831" width="3.816" height="0.737"/>
	<path d="M47.838,25.576c0.528-0.205,0.961-0.462,1.323-0.762h-11.15v0.762H47.838z"/>
	<path d="M38.011,23.827v0.737h11.437c0.221-0.223,0.403-0.471,0.562-0.737H38.011z"/>
	<path d="M45.602,22.822c-0.478,0.215-1.084,0.312-1.866,0.306h-1.908v-0.306h-3.816v0.755h12.139
		c0.117-0.235,0.215-0.488,0.297-0.755H45.602z"/>
	<path d="M38.011,14.588H49.22c-0.355-0.308-0.785-0.569-1.305-0.781h-9.904V14.588z"/>
	<path d="M50.536,16.831h-4.49c0.239,0.187,0.43,0.429,0.569,0.737h4.063C50.641,17.312,50.595,17.065,50.536,16.831z"/>
	<path d="M46.712,17.818c0.076,0.224,0.135,0.476,0.174,0.762h3.893c-0.016-0.264-0.038-0.518-0.068-0.762H46.712z"/>
	<path d="M46.92,18.83c0.021,0.227,0.032,0.473,0.034,0.737h3.855c0-0.253-0.005-0.499-0.016-0.737H46.92z"/>
	<path d="M46.952,19.817c-0.004,0.268-0.012,0.525-0.035,0.755h3.874c0.011-0.243,0.017-0.495,0.019-0.755H46.952z"/>
	<rect x="38.011" y="19.817" width="3.816" height="0.755"/>
	<path d="M47.186,13.557c-1.065-0.303-2.424-0.459-4.17-0.459h-5.005v0.459H47.186z"/>
	<path d="M38.011,25.826v0.417h5.005c1.68,0,3.007-0.14,4.054-0.417H38.011z"/>
	<rect x="38.011" y="20.822" width="3.816" height="0.746"/>
	<path d="M46.7,21.568h4.006c0.029-0.239,0.053-0.488,0.069-0.746h-3.899C46.835,21.1,46.776,21.348,46.7,21.568z"/>
	<rect x="38.011" y="21.834" width="3.816" height="0.737"/>
	<path d="M46.599,21.834c-0.143,0.31-0.34,0.549-0.583,0.737h4.509c0.061-0.234,0.109-0.48,0.148-0.737H46.599z"/>
</g>
<g>
	<polygon points="27.708,35.668 31.31,35.668 31.011,34.907 27.453,34.907 	"/>
	<polygon points="24.449,32.665 30.13,32.665 29.841,31.927 24.738,31.927 	"/>
	<polygon points="26.675,35.918 23.172,35.918 22.883,36.656 26.426,36.656 	"/>
	<polygon points="27.101,34.657 27.236,34.258 27.369,34.657 30.912,34.657 30.623,33.919 23.957,33.919 23.667,34.657 	"/>
	<polygon points="29.036,39.641 25.417,39.641 25.66,38.923 21.994,38.923 21.705,39.661 32.875,39.661 32.586,38.923 
		28.796,38.923 	"/>
	<polygon points="30.524,33.669 30.229,32.915 24.351,32.915 24.055,33.669 	"/>
	<polygon points="28.374,37.661 32.091,37.661 31.794,36.906 28.121,36.906 	"/>
	<polygon points="28.038,36.656 31.696,36.656 31.407,35.918 27.791,35.918 	"/>
	<polygon points="32.487,38.673 32.188,37.911 28.458,37.911 28.712,38.673 	"/>
	<polygon points="26.759,35.668 27.017,34.907 23.569,34.907 23.271,35.668 	"/>
	<polygon points="34.151,42.915 30.142,42.915 30.402,43.691 34.456,43.691 	"/>
	<polygon points="29.743,31.677 29.54,31.161 25.039,31.161 24.836,31.677 	"/>
	<polygon points="24.069,43.691 24.331,42.915 20.428,42.915 20.124,43.691 	"/>
	<polygon points="20.025,43.941 19.89,44.287 23.869,44.287 23.985,43.941 	"/>
	<polygon points="30.487,43.941 30.603,44.287 34.69,44.287 34.554,43.941 	"/>
	<polygon points="33.657,41.653 33.367,40.916 21.212,40.916 20.923,41.653 	"/>
	<polygon points="24.415,42.665 24.517,42.36 29.954,42.36 30.058,42.665 34.054,42.665 33.755,41.903 20.825,41.903 20.526,42.665 
			"/>
	<polygon points="25.744,38.673 26.002,37.911 22.391,37.911 22.092,38.673 	"/>
	<polygon points="32.974,39.911 21.606,39.911 21.31,40.666 33.27,40.666 	"/>
	<polygon points="26.341,36.906 22.785,36.906 22.489,37.661 26.086,37.661 	"/>
</g>
<g>
	<path d="M44.19,35.639h3.599c0.062-0.241,0.092-0.497,0.103-0.762h-3.654c0.015,0.094,0.027,0.189,0.027,0.299
		C44.265,35.354,44.236,35.503,44.19,35.639z"/>
	<path d="M47.845,33.89h-4.963c0.736,0.094,1.128,0.312,1.287,0.737h3.73C47.897,34.365,47.879,34.12,47.845,33.89z"/>
	<path d="M36.071,32.635h11.297c-0.213-0.293-0.499-0.537-0.872-0.737H36.071V32.635z"/>
	<path d="M47.798,33.64c-0.059-0.277-0.148-0.528-0.272-0.755H36.071v0.755H47.798z"/>
	<path d="M42.013,36.418h-2.214v-0.529h-3.728v0.737h11.241c0.173-0.226,0.304-0.472,0.397-0.737h-3.648
		C43.778,36.266,43.165,36.418,42.013,36.418z"/>
	<path d="M48.229,41.624c0.034-0.228,0.053-0.475,0.061-0.737h-3.794c-0.202,0.468-0.739,0.669-1.788,0.737H48.229z"/>
	<rect x="36.071" y="38.894" width="3.728" height="0.737"/>
	<path d="M44.606,40.308c0,0.121-0.014,0.228-0.031,0.328h3.721c0-0.014,0.002-0.026,0.002-0.04c0-0.249-0.025-0.485-0.066-0.715
		h-3.674C44.588,40.01,44.606,40.15,44.606,40.308z"/>
	<path d="M44.473,39.631h3.714c-0.066-0.264-0.174-0.508-0.316-0.737h-4.756C43.839,38.991,44.274,39.213,44.473,39.631z"/>
	<path d="M45.919,31.648c-0.965-0.336-2.342-0.487-4.283-0.487h-5.564v0.487H45.919z"/>
	<rect x="36.071" y="33.89" width="3.728" height="0.737"/>
	<path d="M47.755,42.885H36.071v0.776h10.701C47.208,43.458,47.525,43.2,47.755,42.885z"/>
	<rect x="36.071" y="40.886" width="3.728" height="0.737"/>
	<path d="M36.071,43.912v0.394h1.062v0.018h4.502c2.027,0,3.451-0.126,4.451-0.411H36.071z"/>
	<path d="M47.917,42.635c0.121-0.227,0.208-0.48,0.268-0.762H36.071v0.762H47.917z"/>
	<rect x="36.071" y="34.877" width="3.728" height="0.762"/>
	<path d="M46.011,37.589c0.454-0.188,0.805-0.432,1.083-0.713H36.071v0.755h10.048C46.081,37.619,46.05,37.602,46.011,37.589z"/>
	<path d="M47.688,38.644c-0.236-0.293-0.553-0.55-0.971-0.763H36.071v0.763H47.688z"/>
	<rect x="36.071" y="39.881" width="3.728" height="0.755"/>
</g>
<g>
	<rect x="14.348" y="8.753" width="1.205" height="0.458"/>
	<polygon points="14.348,6.822 12.072,6.822 12.072,6.749 10.867,6.749 10.867,7.208 15.553,7.208 15.553,6.749 14.348,6.749 	"/>
	<rect x="10.867" y="8.753" width="1.205" height="0.458"/>
	<rect x="14.348" y="5.415" width="1.205" height="0.459"/>
	<rect x="10.867" y="7.408" width="4.686" height="0.47"/>
	<rect x="10.867" y="8.078" width="1.205" height="0.476"/>
	<rect x="14.348" y="8.078" width="1.205" height="0.476"/>
	<rect x="10.867" y="5.415" width="1.205" height="0.459"/>
	<rect x="10.867" y="9.411" width="1.205" height="0.563"/>
	<rect x="14.348" y="9.411" width="1.205" height="0.563"/>
	<rect x="10.867" y="4.903" width="1.205" height="0.311"/>
	<rect x="10.867" y="6.074" width="1.205" height="0.475"/>
	<rect x="14.348" y="4.903" width="1.205" height="0.311"/>
	<rect x="14.348" y="6.074" width="1.205" height="0.475"/>
</g>
<g>
	<polygon points="16.642,7.883 17.847,7.883 17.847,7.838 20.221,7.838 20.221,7.413 16.642,7.413 	"/>
	<rect x="16.642" y="8.083" width="1.205" height="0.476"/>
	<polygon points="16.642,6.754 16.642,7.213 20.221,7.213 20.221,6.941 17.847,6.941 17.847,6.754 	"/>
	<polygon points="16.642,8.758 16.642,9.217 20.683,9.217 20.683,8.994 17.847,8.994 17.847,8.758 	"/>
	<rect x="16.642" y="9.417" width="4.041" height="0.558"/>
	<rect x="16.642" y="6.079" width="1.205" height="0.475"/>
	<rect x="16.642" y="4.903" width="3.985" height="0.316"/>
	<rect x="16.642" y="5.42" width="3.985" height="0.459"/>
</g>
</svg>
